<?xml version="1.0" encoding="UTF-8" standalone="no"?>
<!DOCTYPE svg PUBLIC "-//W3C//DTD SVG 1.1//EN" "http://www.w3.org/Graphics/SVG/1.1/DTD/svg11.dtd">
<svg version="1.1" xmlns="http://www.w3.org/2000/svg" xmlns:xlink="http://www.w3.org/1999/xlink" preserveAspectRatio="xMidYMid meet" viewBox="0 0 640 640" width="640" height="640"><defs><path d="M377.33 211.24C361.07 198.19 345.12 192.64 323.65 200.97C305.43 207.91 289.16 220.13 272.89 230.4C267.36 233.81 223.11 261.13 217.58 264.55C202.29 273.99 186.67 282.59 180.49 298.97C179.19 302.86 178.21 306.75 178.21 310.91C177.24 311.19 176.59 311.47 175.61 311.74C175.55 311.76 175.22 311.86 174.64 312.02L174.64 312.02C174.25 312.02 174.03 312.02 173.98 312.02C167.15 313.97 159.99 318.69 158.69 325.07C158.69 325.13 158.69 325.57 158.69 325.63C158.37 327.29 158.37 328.96 158.37 330.62C155.11 337.56 157.07 345.34 163.25 350.61C163.9 350.89 164.22 351.45 164.87 351.72C165.2 357.28 167.15 362.83 170.41 367.83C176.59 376.99 186.67 383.1 195.78 390.04C205.87 397.53 215.31 405.31 224.74 413.36C241.01 427.24 259.55 453.61 285.58 453.61C299.25 453.61 310.31 446.12 321.05 439.73C324.5 437.68 352.09 421.24 355.54 419.19C377.66 406.14 400.11 393.37 421.58 379.49C432.32 373.1 440.78 364.49 446.64 354.5C453.14 351.45 457.05 345.34 456.72 338.95C456.4 305.91 435.9 273.43 413.78 247.33C403.04 234.29 390.67 222.07 377.33 211.24Z" id="amqbGYA3S"></path><path d="M201.6 339.69C199.7 337.52 197.81 335.61 195.92 333.71C196.42 334.33 200.46 339.34 200.96 339.96C201.28 339.96 201.6 339.96 201.6 339.69C201.91 339.69 201.91 339.69 201.6 339.69Z" id="eR8qRvoac"></path><path d="M207.9 345.4C207.59 345.94 206.96 346.22 206.33 346.49C206.8 347.06 210.58 351.63 211.06 352.2C211.69 351.93 212.63 351.38 213.58 351.11C211.69 349.21 209.79 347.3 207.9 345.4Z" id="aU0eJadua"></path><path d="M228.4 366.88C228.08 367.42 227.77 367.97 227.14 368.24C227.01 368.33 226.38 368.78 225.24 369.6C227.89 372.86 229.36 374.67 229.66 375.04C230.92 374.22 232.18 373.41 233.44 372.86C231.87 370.96 229.97 368.78 228.4 366.88Z" id="bbrDFpEyY"></path><path d="M259.3 406.3C258.35 404.4 256.78 402.5 255.52 400.6C254.57 401.41 253.62 402.23 252.68 402.77C253.12 403.29 256.65 407.42 257.09 407.94C257.72 407.39 258.35 406.58 259.3 406.3C259.3 406.03 259.61 406.03 259.3 406.3Z" id="bMEVwwsNQ"></path><path d="M250.79 393.8C249.84 392.44 248.58 391.08 247.63 389.72C247.32 389.99 247.32 389.99 247 389.99C246.06 390.53 245.11 391.35 244.16 391.89C244.51 392.3 247.29 395.57 247.63 395.97C247.95 395.7 248.58 395.16 249.52 394.61C249.84 394.34 250.47 394.07 250.79 393.8Z" id="a1l5407w6n"></path><path d="M223.04 361.44C221.78 360.08 220.51 358.45 218.94 357.09C218.62 357.36 218.31 357.64 217.99 357.91C217.36 358.18 216.73 358.45 216.1 358.72C216.33 359.01 217.49 360.46 219.57 363.07L220.83 362.26C221.67 361.71 222.41 361.44 223.04 361.44Z" id="cpJJIhdmB"></path><path d="M242.27 383.47C241.01 382.11 240.06 380.75 238.8 379.12C237.54 379.93 236.28 380.47 235.02 381.29C235.37 381.73 238.14 385.21 238.49 385.64C239.43 384.83 240.7 384.28 241.64 383.74C241.96 383.74 241.96 383.47 242.27 383.47Z" id="d8lF9BxOB5"></path><path d="M264.34 412.83C263.71 413.37 262.77 413.92 262.14 414.46C263.71 416.36 276.33 431.59 277.9 433.49C275.7 430.23 273.8 426.97 271.6 423.43C269.07 419.9 266.87 416.09 264.34 412.83Z" id="bmxwhCRvy"></path><path d="M386.06 240.18C379.44 233.11 370.29 224.14 359.26 214.07C352 207.55 340.65 206.46 332.14 211.08C332.29 211.32 333.02 212.5 334.35 214.62C332.83 212.66 331.99 211.57 331.82 211.36C301.55 227.4 270.34 245.34 238.49 265.46C220.83 276.34 204.12 287.21 188.04 298.09C178.89 304.34 177.32 315.76 184.25 323.65C184.25 323.65 184.25 323.65 184.25 323.65C182.55 324.87 168.93 334.66 167.23 335.88C159.34 341.59 158.4 351.65 164.7 358.45C196.55 391.62 231.87 422.35 270.02 450.35C273.17 452.8 276.64 454.7 280.11 456.61C283.89 458.51 288.31 459.6 292.72 459.87C292.72 459.87 293.04 459.87 293.04 459.87C293.35 460.14 293.67 460.14 293.99 460.41C295.25 460.68 296.51 460.68 297.77 460.14C343.18 438.39 385.74 412.29 424.21 382.38C432.1 376.4 439.35 370.41 446.29 364.43C452.91 359 456.38 351.38 456.38 343.5C457.32 339.15 456.38 335.07 454.17 330.99C454.17 330.99 454.17 330.99 454.17 330.99C437.35 300.18 414.65 269.9 386.06 240.18ZM336.87 217.88C341.91 215.16 348.54 215.98 352.64 219.51C363.67 229.57 372.5 238.27 379.12 245.07C421.06 288.85 441.24 325.55 445.97 333.98C445.97 334.01 445.97 334.23 445.97 334.25C447.55 336.97 448.18 339.96 448.18 342.95C448.18 348.66 445.34 354.1 440.61 358.18C433.67 364.16 426.42 370.14 418.85 375.85C381.96 404.95 341.6 429.96 298.08 450.9C292.41 440.56 286.42 430.23 279.48 419.63C255.83 383.19 226.51 349.48 192.45 319.3C187.72 315.22 188.04 308.69 192.77 304.89C193.08 304.62 193.4 304.34 193.71 304.07C209.79 293.2 226.51 282.59 243.85 271.72C275.7 251.87 306.6 233.92 336.87 217.88C336.87 217.88 336.87 217.88 336.87 217.88ZM173.53 341.87C175.27 340.61 189.14 330.61 190.87 329.36C192.45 330.99 194.34 332.35 195.92 333.98C197.81 335.88 200.02 337.79 201.91 339.69C201.91 339.69 201.6 339.69 201.6 339.69C201.28 339.69 201.28 339.96 200.96 339.96C195.92 342.41 191.19 345.94 187.41 349.75C185.83 351.38 186.14 353.83 188.04 355.19C189.93 356.55 192.77 356.28 194.34 354.64C194.34 354.64 194.34 354.64 194.34 354.64C194.34 354.64 194.34 354.64 194.34 354.64C197.5 351.38 201.6 348.39 206.01 346.22C206.01 346.22 206.01 346.22 206.01 346.22C206.64 345.94 206.96 345.4 207.59 345.13C209.48 347.03 211.37 348.93 213.26 350.84C212.32 351.11 211.69 351.65 210.74 352.2C206.01 354.64 201.28 357.91 197.18 361.17C195.29 362.53 195.29 365.25 196.87 366.61C198.44 368.24 201.6 368.24 203.17 366.88C203.17 366.88 203.17 366.88 203.49 366.61C203.49 366.61 203.49 366.61 203.49 366.61C207.27 363.35 211.37 360.63 215.78 358.45C216.42 358.18 217.05 357.91 217.68 357.64C217.99 357.36 218.31 357.09 218.62 356.82C219.88 358.18 221.15 359.81 222.72 361.17C221.78 361.17 221.15 361.71 220.51 361.99C220.42 362.07 219.66 362.72 219.57 362.8C216.42 365.25 212.95 367.7 209.79 370.41C207.9 371.77 207.59 374.22 209.48 375.85C211.06 377.48 213.89 377.76 215.78 376.12C215.78 376.12 215.78 376.12 215.78 376.12L224.93 369.06C226.06 368.24 226.7 367.79 226.82 367.7C227.45 367.42 227.77 366.88 228.08 366.34C229.66 368.24 231.55 370.14 233.13 372.32C231.87 373.13 230.61 373.68 229.66 374.49C226.51 376.67 223.35 378.84 220.83 381.56C219.25 383.19 219.25 385.64 221.15 387C223.04 388.36 225.88 388.36 227.45 386.73C227.45 386.73 227.45 386.73 227.45 386.73C229.66 384.55 232.18 382.65 234.7 381.02C235.97 380.2 237.23 379.39 238.49 378.84C239.75 380.2 240.7 381.56 241.96 383.19C241.64 383.19 241.64 383.47 241.33 383.47C240.38 384.01 239.12 384.83 238.17 385.37C235.33 387.27 232.81 389.45 230.61 391.89C229.03 393.53 229.34 395.97 231.24 397.33C233.13 398.69 235.97 398.42 237.54 396.79C237.54 396.79 237.54 396.79 237.54 396.79C239.43 394.89 241.33 393.25 243.53 391.89C244.48 391.35 245.43 390.53 246.37 389.99C246.69 389.99 246.69 389.72 247 389.72C247.95 391.08 249.21 392.44 250.16 393.8C249.84 394.07 249.21 394.07 248.89 394.61C248.26 395.16 247.63 395.7 246.69 396.24C244.79 397.6 242.59 399.24 240.7 400.32C238.49 401.68 238.17 404.13 239.43 405.76C241.01 407.66 243.85 407.94 245.74 406.85C245.74 406.85 245.74 406.85 245.74 406.85C247.95 405.49 249.84 404.13 252.05 402.77C252.99 401.95 253.94 401.41 254.88 400.6C256.15 402.5 257.72 404.4 258.98 406.3C258.98 406.3 258.67 406.3 258.67 406.3C255.52 408.21 252.99 410.38 251.42 413.37C250.16 415.28 251.1 417.72 253.31 418.81C255.52 419.9 258.35 419.08 259.61 417.18C259.61 417.18 259.61 417.18 259.61 417.18C259.61 417.18 259.61 417.18 259.61 417.18C260.25 416.36 260.88 415.55 261.82 414.73C262.45 414.19 263.08 413.65 264.03 413.1C266.55 416.64 268.76 420.17 271.28 423.71C273.49 426.97 275.38 430.23 277.59 433.49C281.06 439.48 284.53 445.19 287.68 450.9C286.73 450.62 285.79 450.08 284.84 449.81C281.69 448.18 278.85 446.55 276.33 444.37C238.49 416.91 203.8 386.46 172.27 353.56C171.01 351.93 170.06 350.02 170.06 348.12C170.06 345.67 171.32 343.5 173.53 341.87Z" id="b4jWR4Ain"></path><path d="M219.25 318.21C219.25 318.21 219.25 318.21 219.25 318.21C234.7 305.98 251.73 295.37 270.02 286.4C272.23 285.31 273.17 283.14 271.91 281.23C270.65 279.33 268.13 278.51 265.92 279.6C265.92 279.6 265.61 279.6 265.61 279.87C246.69 289.12 229.34 300.27 213.26 312.77C211.37 313.86 211.37 316.31 212.95 317.94C214.52 319.57 217.68 319.57 219.25 318.21Z" id="c47O3I96fR"></path><path d="M228.71 331.53C228.71 331.53 228.71 331.53 228.71 331.53C228.71 331.53 228.71 331.53 228.71 331.53C244.79 319.57 261.51 308.42 278.53 297.82C280.74 296.46 281.06 294.01 279.48 292.38C277.9 290.48 275.07 290.21 273.17 291.57C273.17 291.57 273.17 291.57 273.17 291.57C255.83 302.44 238.8 313.86 222.72 325.82C221.15 326.91 220.83 329.36 222.41 330.99C222.41 330.99 222.41 330.99 222.41 330.99C223.98 332.62 226.82 332.89 228.71 331.53Z" id="d3qPg4l9D"></path><path d="M295.88 302.71C294.3 301.08 291.46 300.54 289.57 301.9C284.08 305.35 240.19 332.97 234.7 336.43C232.81 337.79 232.18 340.23 233.76 341.87C235.33 343.5 238.17 344.04 240.06 342.68C240.06 342.68 240.06 342.68 240.06 342.68C258.35 331.26 276.64 319.57 294.93 308.15C296.82 306.79 297.45 304.34 295.88 302.71Z" id="e2fLgi1DpJ"></path><path d="M306.91 315.49C305.65 313.59 302.81 313.04 300.61 314.13C280.74 324.46 262.14 336.16 244.79 349.21C242.9 350.57 242.59 353.01 244.16 354.64C245.74 356.28 248.58 356.55 250.47 355.19C250.47 355.19 250.47 355.19 250.47 355.19C250.47 355.19 250.47 355.19 250.47 355.19C267.5 342.41 285.79 330.99 305.34 320.93C307.54 319.84 308.17 317.4 306.91 315.49Z" id="dezUaSgr4"></path><path d="M317.95 326.64C316.69 324.74 313.85 324.19 311.64 325.28C292.41 335.34 274.43 346.76 257.72 359.81C255.83 361.17 255.83 363.89 257.41 365.25C258.98 366.88 261.82 366.88 263.71 365.52C263.71 365.52 263.71 365.52 263.71 365.52C280.11 353.29 297.45 341.87 316.37 332.08C318.58 330.99 319.21 328.54 317.95 326.64Z" id="dYk9Jjxtk"></path><path d="M282 385.1C282 385.1 282 385.1 282 385.1C322.05 361.17 361.78 336.43 400.88 311.41C402.77 310.05 403.4 307.61 401.83 305.98C400.25 304.34 397.41 303.8 395.52 305.16C356.42 329.9 316.69 354.37 276.96 378.3C274.75 379.66 274.12 382.11 275.7 384.01C277.27 385.91 280.11 386.18 282 385.1Z" id="b9q5LNf41"></path><path d="M331.51 383.19C333.72 382.11 334.35 379.66 333.09 377.76C331.82 375.85 328.99 375.31 326.78 376.4C326.78 376.4 326.78 376.4 326.78 376.4C315.11 382.92 303.44 389.72 292.09 396.79C290.2 398.15 289.89 400.6 291.46 402.23C292.41 403.86 295.25 404.4 297.14 403.31C308.49 396.24 319.84 389.72 331.51 383.19Z" id="g25n4EIEnD"></path><path d="M340.97 395.43C343.18 394.34 344.12 392.17 342.86 389.99C341.6 387.82 339.08 387.27 336.55 388.36C322.99 394.34 310.07 401.68 298.08 409.84C296.19 411.2 295.88 413.65 297.45 415.28C299.03 417.18 301.87 417.45 303.76 416.09C303.76 416.09 303.76 416.09 303.76 416.09L303.76 416.09C319.74 406.3 332.14 399.42 340.97 395.43Z" id="bufx8ieS"></path><path d="M304.39 424.52C302.5 425.88 302.18 428.33 303.76 429.96C305.34 431.59 308.17 431.86 310.07 430.5C310.07 430.5 310.07 430.5 310.07 430.5C321.42 422.35 333.72 415.28 346.64 409.3C348.85 408.21 349.8 405.76 348.54 403.86C347.27 401.95 344.44 401.14 342.23 402.23C328.99 408.48 316.06 416.09 304.39 424.52Z" id="b21GjtRmAo"></path><path d="M369.35 347.85C369.35 347.85 369.35 347.85 369.35 347.85C359.26 352.2 350.11 357.64 341.28 363.89C339.39 365.25 339.08 367.7 340.65 369.33C342.23 370.96 345.07 371.23 346.96 369.87C346.96 369.87 346.96 369.87 347.27 369.6C347.27 369.6 347.27 369.6 347.27 369.6C355.47 363.62 364.3 358.72 373.76 354.37C375.97 353.83 376.91 351.38 375.65 349.48C374.39 347.58 371.87 346.76 369.35 347.85Z" id="bnHrJBNMR"></path><path d="M384.8 362.26C383.85 360.35 381.01 359.54 378.81 360.35C368.09 364.7 358 370.69 349.48 378.03C347.59 379.66 347.59 382.11 349.48 383.74C351.37 385.37 354.21 385.37 356.1 383.74C356.1 383.74 356.1 383.74 356.1 383.74C363.67 376.94 372.82 371.5 382.59 367.42C384.8 366.34 385.74 364.16 384.8 362.26Z" id="b5tmSsmvxm"></path><path d="M358.63 391.08C356.73 392.44 356.73 395.16 358.31 396.52C359.89 398.15 363.04 398.15 364.62 396.79C364.62 396.79 364.62 396.79 364.93 396.52C364.93 396.52 364.93 396.52 364.93 396.52C372.82 389.99 381.64 384.01 390.79 378.84C393 377.76 393.63 375.31 392.37 373.41C391.1 371.5 387.95 371.23 385.74 372.59C385.74 372.59 385.74 372.59 385.74 372.59C385.74 372.59 385.74 372.59 385.74 372.59C373.13 380.38 364.09 386.55 358.63 391.08Z" id="bi1l6v9PT"></path><path d="M391.74 343.5C391.74 343.5 391.74 343.5 391.74 343.5C404.79 335.01 412.04 330.3 413.49 329.36C415.38 328 416.01 325.55 414.44 323.92C412.86 322.29 410.02 321.75 408.13 323.1C408.13 323.1 408.13 323.1 408.13 323.1C400.88 327.73 393.63 332.62 386.37 337.24C384.17 338.6 383.85 341.05 385.43 342.68C387.01 344.31 389.84 344.86 391.74 343.5Z" id="azuf6A3Jb"></path><path d="M398.67 356.55C398.67 356.55 398.67 356.55 398.67 356.55C398.67 356.55 398.67 356.55 398.67 356.55C405.92 350.84 413.81 345.4 422.32 341.05C424.53 339.96 425.16 337.52 423.9 335.61C422.64 333.71 419.8 333.17 417.59 334.25C408.76 339.15 400.25 344.58 392.37 350.57C390.79 352.2 390.79 354.64 392.37 356.28C392.37 356.28 392.37 356.28 392.37 356.28C393.94 357.91 397.1 357.91 398.67 356.55Z" id="e1ifWl2sUX"></path><path d="M406.56 368.51C406.56 368.51 406.56 368.51 406.56 368.51C406.56 368.51 406.56 368.51 406.56 368.51C414.12 362.8 422.01 357.64 430.52 353.01C432.73 351.93 433.36 349.48 431.78 347.58C430.52 345.67 427.68 345.13 425.47 346.49C416.65 351.38 408.45 356.82 400.56 362.53C398.67 363.62 398.36 366.34 400.25 367.97C401.83 369.6 404.66 369.87 406.56 368.51Z" id="a250Iv5ENN"></path><path d="M344.12 237.73L344.12 237.73L344.12 237.73L344.12 237.73Z" id="e2RQdSpE8D"></path><path d="M332.14 261.66L332.14 261.66L332.14 261.66L332.14 261.66Z" id="abI4DkHd"></path><path d="M322.99 324.19C323.94 326.1 326.78 326.91 328.99 326.1C328.99 326.1 329.3 326.1 329.3 325.82C349.48 314.95 369.03 303.8 387.95 291.57C390.16 290.21 390.47 287.76 389.21 286.13C387.64 284.22 384.8 283.95 382.91 285.04C382.91 285.04 382.91 285.04 382.59 285.04C366.51 295.37 349.8 305.16 332.45 314.68C331.82 302.98 331.19 291.57 330.56 279.87C337.81 281.23 345.07 282.32 352.32 282.86C354.84 283.14 357.05 281.5 357.36 279.33C357.36 279.06 357.36 278.79 357.36 278.51C355.79 269 353.58 259.48 350.74 250.24C351.28 250.56 355.57 253.17 356.1 253.5C358.31 254.86 361.15 254.32 362.41 252.68C363.99 251.05 363.36 248.61 361.46 247.25C360.64 246.74 356.55 244.2 349.17 239.63C349.17 239.63 349.17 239.63 349.17 239.63C348.54 239.36 347.91 238.82 347.27 238.55C346.33 238 345.07 237.73 344.12 237.73C344.09 237.73 343.84 237.73 343.81 237.73C342.54 237.73 341.28 238 340.02 238.55C338.76 239.36 337.81 240.18 336.87 241.26C336.24 242.08 335.92 242.9 335.61 243.98C335.27 244.82 333.59 248.99 330.56 256.49C330.56 256.49 330.56 256.49 330.56 256.49C330.25 257.03 330.25 257.58 330.25 258.12C330.25 258.67 330.25 259.21 330.56 259.75C330.88 260.57 331.51 261.11 332.14 261.66C333.72 262.74 335.61 262.74 337.18 261.93C337.81 261.66 338.45 261.11 339.08 260.57C339.71 259.75 340.02 258.39 339.71 257.31C339.9 256.82 341.41 252.9 341.6 252.41C343.81 259.75 345.38 267.09 346.96 274.71C340.02 273.89 333.4 272.8 326.78 271.17C324.26 270.63 321.73 271.72 321.1 273.89C321.1 274.16 320.79 274.71 320.79 275.25C321.42 285.86 321.73 296.19 322.36 306.79C313.54 293.74 303.13 281.23 291.15 270.36C289.57 268.73 286.42 268.73 284.84 270.09C283.26 271.17 282.95 273.89 284.84 275.52C284.84 275.25 284.84 275.52 284.84 275.52C300.29 289.93 313.22 306.25 322.99 324.19Z" id="cFACOCKW2"></path></defs><g><g><g><use xlink:href="#amqbGYA3S" opacity="1" fill="#efe7d2" fill-opacity="1"></use><g><use xlink:href="#amqbGYA3S" opacity="1" fill-opacity="0" stroke="#000000" stroke-width="1" stroke-opacity="0"></use></g></g><g><use xlink:href="#eR8qRvoac" opacity="1" fill="#000000" fill-opacity="0"></use><g><use xlink:href="#eR8qRvoac" opacity="1" fill-opacity="0" stroke="#000000" stroke-width="1" stroke-opacity="0"></use></g></g><g><use xlink:href="#aU0eJadua" opacity="1" fill="#000000" fill-opacity="0"></use><g><use xlink:href="#aU0eJadua" opacity="1" fill-opacity="0" stroke="#000000" stroke-width="1" stroke-opacity="0"></use></g></g><g><use xlink:href="#bbrDFpEyY" opacity="1" fill="#000000" fill-opacity="0"></use><g><use xlink:href="#bbrDFpEyY" opacity="1" fill-opacity="0" stroke="#000000" stroke-width="1" stroke-opacity="0"></use></g></g><g><use xlink:href="#bMEVwwsNQ" opacity="1" fill="#000000" fill-opacity="0"></use><g><use xlink:href="#bMEVwwsNQ" opacity="1" fill-opacity="0" stroke="#000000" stroke-width="1" stroke-opacity="0"></use></g></g><g><use xlink:href="#a1l5407w6n" opacity="1" fill="#000000" fill-opacity="0"></use><g><use xlink:href="#a1l5407w6n" opacity="1" fill-opacity="0" stroke="#000000" stroke-width="1" stroke-opacity="0"></use></g></g><g><use xlink:href="#cpJJIhdmB" opacity="1" fill="#000000" fill-opacity="0"></use><g><use xlink:href="#cpJJIhdmB" opacity="1" fill-opacity="0" stroke="#000000" stroke-width="1" stroke-opacity="0"></use></g></g><g><use xlink:href="#d8lF9BxOB5" opacity="1" fill="#000000" fill-opacity="0"></use><g><use xlink:href="#d8lF9BxOB5" opacity="1" fill-opacity="0" stroke="#000000" stroke-width="1" stroke-opacity="0"></use></g></g><g><use xlink:href="#bmxwhCRvy" opacity="1" fill="#000000" fill-opacity="0"></use><g><use xlink:href="#bmxwhCRvy" opacity="1" fill-opacity="0" stroke="#000000" stroke-width="1" stroke-opacity="0"></use></g></g><g><use xlink:href="#b4jWR4Ain" opacity="1" fill="#000000" fill-opacity="1"></use><g><use xlink:href="#b4jWR4Ain" opacity="1" fill-opacity="0" stroke="#000000" stroke-width="1" stroke-opacity="0"></use></g></g><g><use xlink:href="#c47O3I96fR" opacity="1" fill="#000000" fill-opacity="1"></use><g><use xlink:href="#c47O3I96fR" opacity="1" fill-opacity="0" stroke="#000000" stroke-width="1" stroke-opacity="0"></use></g></g><g><use xlink:href="#d3qPg4l9D" opacity="1" fill="#000000" fill-opacity="1"></use><g><use xlink:href="#d3qPg4l9D" opacity="1" fill-opacity="0" stroke="#000000" stroke-width="1" stroke-opacity="0"></use></g></g><g><use xlink:href="#e2fLgi1DpJ" opacity="1" fill="#000000" fill-opacity="1"></use><g><use xlink:href="#e2fLgi1DpJ" opacity="1" fill-opacity="0" stroke="#000000" stroke-width="1" stroke-opacity="0"></use></g></g><g><use xlink:href="#dezUaSgr4" opacity="1" fill="#000000" fill-opacity="1"></use><g><use xlink:href="#dezUaSgr4" opacity="1" fill-opacity="0" stroke="#000000" stroke-width="1" stroke-opacity="0"></use></g></g><g><use xlink:href="#dYk9Jjxtk" opacity="1" fill="#000000" fill-opacity="1"></use><g><use xlink:href="#dYk9Jjxtk" opacity="1" fill-opacity="0" stroke="#000000" stroke-width="1" stroke-opacity="0"></use></g></g><g><use xlink:href="#b9q5LNf41" opacity="1" fill="#000000" fill-opacity="1"></use><g><use xlink:href="#b9q5LNf41" opacity="1" fill-opacity="0" stroke="#000000" stroke-width="1" stroke-opacity="0"></use></g></g><g><use xlink:href="#g25n4EIEnD" opacity="1" fill="#000000" fill-opacity="1"></use><g><use xlink:href="#g25n4EIEnD" opacity="1" fill-opacity="0" stroke="#000000" stroke-width="1" stroke-opacity="0"></use></g></g><g><use xlink:href="#bufx8ieS" opacity="1" fill="#000000" fill-opacity="1"></use><g><use xlink:href="#bufx8ieS" opacity="1" fill-opacity="0" stroke="#000000" stroke-width="1" stroke-opacity="0"></use></g></g><g><use xlink:href="#b21GjtRmAo" opacity="1" fill="#000000" fill-opacity="1"></use><g><use xlink:href="#b21GjtRmAo" opacity="1" fill-opacity="0" stroke="#000000" stroke-width="1" stroke-opacity="0"></use></g></g><g><use xlink:href="#bnHrJBNMR" opacity="1" fill="#000000" fill-opacity="1"></use><g><use xlink:href="#bnHrJBNMR" opacity="1" fill-opacity="0" stroke="#000000" stroke-width="1" stroke-opacity="0"></use></g></g><g><use xlink:href="#b5tmSsmvxm" opacity="1" fill="#000000" fill-opacity="1"></use><g><use xlink:href="#b5tmSsmvxm" opacity="1" fill-opacity="0" stroke="#000000" stroke-width="1" stroke-opacity="0"></use></g></g><g><use xlink:href="#bi1l6v9PT" opacity="1" fill="#000000" fill-opacity="1"></use><g><use xlink:href="#bi1l6v9PT" opacity="1" fill-opacity="0" stroke="#000000" stroke-width="1" stroke-opacity="0"></use></g></g><g><use xlink:href="#azuf6A3Jb" opacity="1" fill="#000000" fill-opacity="1"></use><g><use xlink:href="#azuf6A3Jb" opacity="1" fill-opacity="0" stroke="#000000" stroke-width="1" stroke-opacity="0"></use></g></g><g><use xlink:href="#e1ifWl2sUX" opacity="1" fill="#000000" fill-opacity="1"></use><g><use xlink:href="#e1ifWl2sUX" opacity="1" fill-opacity="0" stroke="#000000" stroke-width="1" stroke-opacity="0"></use></g></g><g><use xlink:href="#a250Iv5ENN" opacity="1" fill="#000000" fill-opacity="1"></use><g><use xlink:href="#a250Iv5ENN" opacity="1" fill-opacity="0" stroke="#000000" stroke-width="1" stroke-opacity="0"></use></g></g><g><use xlink:href="#e2RQdSpE8D" opacity="1" fill="#000000" fill-opacity="1"></use><g><use xlink:href="#e2RQdSpE8D" opacity="1" fill-opacity="0" stroke="#000000" stroke-width="1" stroke-opacity="0"></use></g></g><g><use xlink:href="#abI4DkHd" opacity="1" fill="#000000" fill-opacity="1"></use><g><use xlink:href="#abI4DkHd" opacity="1" fill-opacity="0" stroke="#000000" stroke-width="1" stroke-opacity="0"></use></g></g><g><use xlink:href="#cFACOCKW2" opacity="1" fill="#000000" fill-opacity="1"></use><g><use xlink:href="#cFACOCKW2" opacity="1" fill-opacity="0" stroke="#000000" stroke-width="1" stroke-opacity="0"></use></g></g></g></g></svg>